<svg width="41" height="41" viewBox="0 0 41 41" fill="none" xmlns="http://www.w3.org/2000/svg">
<path d="M32.8 32.8C33.8874 32.8 34.9302 33.232 35.6991 34.0009C36.468 34.7698 36.9 35.8126 36.9 36.9C36.9 37.9874 36.468 39.0302 35.6991 39.7991C34.9302 40.568 33.8874 41 32.8 41C30.5245 41 28.7 39.155 28.7 36.9C28.7 34.6245 30.5245 32.8 32.8 32.8ZM0 0H6.7035L8.6305 4.1H38.95C39.4937 4.1 40.0151 4.31598 40.3996 4.70043C40.784 5.08488 41 5.60631 41 6.15C41 6.4985 40.8975 6.847 40.754 7.175L33.415 20.4385C32.718 21.689 31.365 22.55 29.8275 22.55H14.555L12.71 25.8915L12.6485 26.1375C12.6485 26.2734 12.7025 26.4038 12.7986 26.4999C12.8947 26.596 13.0251 26.65 13.161 26.65H36.9V30.75H12.3C10.0245 30.75 8.2 28.905 8.2 26.65C8.2 25.9325 8.3845 25.256 8.692 24.682L11.48 19.6595L4.1 4.1H0V0ZM12.3 32.8C13.3874 32.8 14.4302 33.232 15.1991 34.0009C15.968 34.7698 16.4 35.8126 16.4 36.9C16.4 37.9874 15.968 39.0302 15.1991 39.7991C14.4302 40.568 13.3874 41 12.3 41C10.0245 41 8.2 39.155 8.2 36.9C8.2 34.6245 10.0245 32.8 12.3 32.8ZM30.75 18.45L36.449 8.2H10.537L15.375 18.45H30.75Z" fill="white"/>
</svg>
